<svg xmlns="http://www.w3.org/2000/svg" version="1.1" xmlns:xlink="http://www.w3.org/1999/xlink" xmlns:svgjs="http://svgjs.dev/svgjs" width="1000" height="1000" viewBox="0 0 1000 1000"><rect width="1000" height="1000" fill="#ffffff"></rect><g transform="matrix(0.7,0,0,0.7,150.0000000000001,106.25)"><svg viewBox="0 0 320 360" data-background-color="#ffffff" preserveAspectRatio="xMidYMid meet" height="1125" width="1000" xmlns="http://www.w3.org/2000/svg" xmlns:xlink="http://www.w3.org/1999/xlink"><g id="tight-bounds" transform="matrix(1,0,0,1,0,0)"><svg viewBox="0 0 320 360" height="360" width="320"><g><svg></svg></g><g><svg viewBox="0 0 320 360" height="360" width="320"><g><path xmlns="http://www.w3.org/2000/svg" d="M20.961 227.22l3.726 4.658-1.863-6.056c-0.466-2.795-3.726 0.466-1.863 1.398M25.153 224.425c1.397 2.329 2.795 4.658 2.795 6.987 0 3.261 2.795 4.658 5.123 5.589-3.261-3.726-5.124-13.974-7.918-12.576M204.017 26.929c7.918 0 15.371-0.932 23.756 0.931 20.495 5.124 37.729 15.371 49.374 29.811l32.606 52.169c1.397 13.042 4.192 27.482 3.726 43.319 3.261 0 2.795-4.658 6.521-5.59-3.726 9.316-5.59 20.961-6.521 34.469-2.329-7.453 0-18.632 0.466-24.687-3.261 5.124-5.124 1.397-5.124-0.932 0.466-3.726-1.397-3.261-2.795-4.658-5.124-4.658-8.384-9.782-12.11-17.7 2.329-6.055 2.795-14.905-4.658-19.563-2.329-1.397-5.124-3.726-6.521-7.453-1.863-5.124-5.124-11.179-4.193-19.097 0.466-2.329-6.987 5.124-11.179 1.863-18.166-12.576-36.332-27.016-58.224-39.127-11.645 0-20.029-4.192-24.221-9.316-3.726-4.658-0.932-10.713 4.658-11.179 3.261 0 6.987-0.932 9.782 0.932 0.466-1.863 2.329-4.192 4.657-4.192M157.904 16.215l0.932 0.466c4.658 0.932 6.987 7.453 12.11 5.124 0 3.261 0.466 6.521-0.466 8.85-1.397 3.726-5.59 3.726-8.85 3.726-31.208-1.863-49.374 11.179-68.471 22.358-5.124 3.261-10.713 5.59-14.906 9.782-20.029 18.632-41.921 35.866-47.045 70.335l-4.192 38.195c-0.466 4.192-5.124 8.384-4.192 13.508l3.26 22.824c-3.261-3.261-5.124 0.932-4.192 2.795 0.466 1.397 2.329 6.055 5.124 1.863 3.726 6.987 7.453 20.495 12.576 26.55 15.837 18.632 36.332 35.4 53.101 52.169 4.192-0.932 7.453-0.932 8.384-3.727 1.397 2.795-1.397 5.59-3.726 6.056 7.453 4.658 15.837 8.85 27.016 9.781 14.44 0.932 27.948 3.261 40.524 6.522 6.521-1.863 13.042-2.795 20.029-3.261 2.329 0 3.726-3.726 6.521-4.658l0.466-4.658c2.795 4.192 2.329-1.397 0.466-4.192 3.261 2.795 4.192 5.124 5.589 6.987 0-1.397 3.726-6.521 3.727-0.466l0.931-6.055c1.397-0.932 1.863 5.124 3.261 0.931 1.397-4.192 4.192-0.932 6.987-2.329-0.932 1.863-0.466 5.59 2.794 3.261l3.727-3.261c2.329 5.59 6.055 3.261 7.918 2.329 20.495-13.042 40.99-28.413 60.553-43.784l-0.466 6.055 2.329-7.453c2.329 2.329 4.192 0.466 5.124-0.931 2.795-4.658 6.521-9.316 12.577-13.508-7.453 20.029-16.303 35.866-27.482 48.908l-4.658 5.59c0 3.261-0.932 7.453-4.658 7.918-1.863 0.466-5.59-0.932-8.384 1.863-1.397 1.863 3.261 5.59-0.466 2.795-3.261-2.329-6.521 0-10.248 0.932-2.795 0.932 1.863 3.726 2.795 5.589 0.932 1.863 1.863 3.726 1.398 6.056l-5.124-5.59c-6.055 3.261-9.782 9.316-14.906 13.974-2.329 1.863-1.397 5.124-1.397 7.918-3.261 0-6.987-0.932-8.85 0.932-1.397 1.863-0.932 4.658-0.932 7.453-4.658-0.466-5.124-7.453-9.315-6.056-4.192 0.932-8.85 1.397-12.577 3.727 2.795 5.59-4.658 2.329-3.726 3.26-6.987-4.192-13.042-7.453-20.495-4.658-15.837-5.124-35.4-2.795-49.84-0.931 0-2.329 0.466-4.658-0.466-5.124-0.932 2.329-3.726 1.397-3.26 1.397-8.85-6.055-17.7-9.782-27.016-14.905-8.384 0.932-16.303-3.261-18.632-5.59-6.521-6.055-13.974-2.795-20.029-4.192-13.042-3.261-17.7-16.769-19.098-26.084-0.932-4.658-4.658-6.521-6.055-6.056-6.055-19.563-15.371-37.263-22.824-55.429-1.863-4.658-1.397-9.316-1.397-14.44 2.329 0.932 4.658 0.466 4.192-2.794-2.329-15.371-7.918-27.016-13.974-38.195 3.261-15.837 3.726-34.469 11.179-48.443 6.521-12.576 18.632-19.098 27.016-29.811 2.795-3.726 2.795-8.85 5.59-12.11 9.316-9.316 18.632-19.098 28.879-27.482 4.658-3.726 10.247 0 17.234-1.397 2.329-8.384 11.645-15.837 20.495-13.508 3.726 0.932 11.179-8.85 13.508-9.782 3.726-1.397 1.863 3.726 1.863 6.987 8.85-6.987 20.961-10.713 32.14-14.906" fill="#000000" fill-rule="nonzero" stroke="none" stroke-width="1" stroke-linecap="butt" stroke-linejoin="miter" stroke-miterlimit="10" stroke-dasharray="" stroke-dashoffset="0" font-family="none" font-weight="none" font-size="none" text-anchor="none" style="mix-blend-mode: normal" data-fill-palette-color="tertiary"></path></g><g transform="matrix(1,0,0,1,64.00000000000001,131.8525653009291)"><svg viewBox="0 0 191.99999999999997 96.29486939814183" height="96.29486939814183" width="191.99999999999997"><g><svg viewBox="0 0 191.99999999999997 96.29486939814183" height="96.29486939814183" width="191.99999999999997"><g><svg viewBox="0 0 191.99999999999997 96.29486939814183" height="96.29486939814183" width="191.99999999999997"><g transform="matrix(1,0,0,1,0,51.66923872205708)"><svg viewBox="0 0 191.99999999999997 44.625630676084754" height="44.625630676084754" width="191.99999999999997"><g id="textblocktransform"><svg viewBox="0 0 191.99999999999997 44.625630676084754" height="44.625630676084754" width="191.99999999999997" id="textblock"><g><svg viewBox="0 0 191.99999999999997 44.625630676084754" height="44.625630676084754" width="191.99999999999997"><g transform="matrix(1,0,0,1,0,0)"><svg width="191.99999999999997" viewBox="1.75 -34.150001525878906 148.63999938964844 34.55000305175781" height="44.625630676084754" data-palette-color="#4790fc"><path d="M15.55-12.65L7.9 0 1.75 0 12.55-17.05 2.35-33.7 8.3-33.7 15.45-21.6 22.5-33.7 28.65-33.7 18.45-17 29.6 0 23.55 0 15.55-12.65ZM55.5-25.35L55.5 0 50.6 0 50.6-4.35Q48.6 0.3 42.7 0.3L42.7 0.3Q38.95 0.3 36.75-1.93 34.55-4.15 34.55-8.05L34.55-8.05 34.55-25.35 39.5-25.35 39.5-9.25Q39.5-6.65 40.77-5.28 42.05-3.9 44.3-3.9L44.3-3.9Q47.15-3.9 48.87-5.9 50.6-7.9 50.6-11.55L50.6-11.55 50.6-25.35 55.5-25.35ZM87-6.85L87-1.65Q83.9 0.4 78.4 0.4L78.4 0.4Q70.85 0.4 66.05-4.3 61.25-9 61.25-16.9L61.25-16.9Q61.25-24.55 66.07-29.35 70.9-34.15 78.3-34.15L78.3-34.15Q83.7-34.15 86.95-32.3L86.95-32.3 86.95-27.25Q84.75-28.45 82.97-28.93 81.2-29.4 78.45-29.4L78.45-29.4Q73.4-29.4 70.02-25.98 66.65-22.55 66.65-16.9L66.65-16.9Q66.65-11.15 70-7.75 73.35-4.35 78.85-4.35L78.85-4.35Q83.7-4.35 87-6.85L87-6.85ZM100.84-3.65L100.84-3.65Q103.24-3.65 104.62-4.98 105.99-6.3 105.99-8.45L105.99-8.45 105.99-11.3 102.19-11.3Q99.39-11.3 97.97-10.2 96.54-9.1 96.54-7.4L96.54-7.4Q96.54-5.65 97.64-4.65 98.74-3.65 100.84-3.65ZM106.14 0L106.14-3Q104.19 0.2 99.29 0.2L99.29 0.2Q95.69 0.2 93.52-1.88 91.34-3.95 91.34-7.15L91.34-7.15Q91.34-10.8 94.09-12.83 96.84-14.85 101.79-14.85L101.79-14.85 105.99-14.85 105.99-16.3Q105.99-18.9 104.74-20.23 103.49-21.55 100.59-21.55L100.59-21.55Q96.54-21.55 93.24-19.3L93.24-19.3 93.24-24.05Q96.19-25.75 101.04-25.75L101.04-25.75Q110.99-25.75 110.99-16.1L110.99-16.1 110.99 0 106.14 0ZM122.49-13.5L122.49 0 117.59 0 117.59-25.35 122.49-25.35 122.49-20.9Q124.34-25.6 129.14-25.6L129.14-25.6Q129.84-25.6 130.69-25.45L130.69-25.45 130.69-20.65Q129.64-21.1 128.34-21.1L128.34-21.1Q125.79-21.1 124.14-18.85 122.49-16.6 122.49-13.5L122.49-13.5ZM150.39-7L150.39-7Q150.39-3.6 147.99-1.68 145.59 0.25 141.49 0.25L141.49 0.25Q136.99 0.25 133.99-1.25L133.99-1.25 133.99-5.9Q137.49-3.75 141.24-3.75L141.24-3.75Q143.19-3.75 144.26-4.55 145.34-5.35 145.34-6.65L145.34-6.65Q145.34-7.75 144.49-8.63 143.64-9.5 142.76-9.93 141.89-10.35 139.79-11.25L139.79-11.25Q133.84-13.7 133.84-18.45L133.84-18.45Q133.84-21.8 136.34-23.7 138.84-25.6 142.59-25.6L142.59-25.6Q146.69-25.6 148.99-24.5L148.99-24.5 148.99-20.05Q146.54-21.5 142.69-21.5L142.69-21.5Q140.94-21.5 139.91-20.7 138.89-19.9 138.89-18.6L138.89-18.6Q138.89-18.25 138.96-17.93 139.04-17.6 139.24-17.28 139.44-16.95 139.61-16.73 139.79-16.5 140.19-16.25 140.59-16 140.81-15.83 141.04-15.65 141.56-15.4 142.09-15.15 142.34-15.03 142.59-14.9 143.21-14.63 143.84-14.35 144.09-14.25L144.09-14.25Q147.04-12.95 148.71-11.33 150.39-9.7 150.39-7Z" opacity="1" transform="matrix(1,0,0,1,0,0)" fill="#000000" class="wordmark-text-0" data-fill-palette-color="primary" id="text-0"></path></svg></g></svg></g></svg></g></svg></g><g transform="matrix(1,0,0,1,36.672,0)"><svg viewBox="0 0 118.65599999999998 45.15728819128009" height="45.15728819128009" width="118.65599999999998"><g><svg xmlns="http://www.w3.org/2000/svg" xmlns:xlink="http://www.w3.org/1999/xlink" version="1.1" x="0" y="0" viewBox="0.0002219676971435547 30.971721649169922 99.9999008178711 38.05727767944336" enable-background="new 0 0 100 100" xml:space="preserve" width="118.65599999999998" height="45.15728819128009" class="icon-icon-0" data-fill-palette-color="accent" id="icon-0"><g fill="#2ecc40" data-fill-palette-color="accent"><path d="M99.892 54.69c-0.25-1.734-0.75-2.664-2.003-3.523-3.329-2.281-16.276-5.368-21.237-6.281-3.091-3.112-7.729-7.354-12.561-10.252-2.906-1.743-6.629-2.63-8.588-2.898-0.828-0.113-12.91-1.235-24.047-0.537-8.288 0.52-14.684 7.507-20.665 10.909-3.019 0.4-4.409 0.622-7.231 1.205-2.682 0.554-3.826 7.854-3.508 13.377 0.127 2.21 2.694 3.436 4.129 3.626 1.417 0.185 6.011 0.674 11.021 1.198 0.324 4.186 3.83 7.515 8.094 7.515 3.689 0 6.822-2.579 7.811-5.962C31.22 63.078 31.295 63 31.295 63s24.429 0 42.272 0c0.992 4 4.113 5.857 7.797 5.857 3.678 0 6.806-1.857 7.8-5.857 1.696 0 2.692 0 2.751 0 0 0 3.219-0.037 5.079-0.611 1.334-0.41 2.415-1.103 2.791-2.392C99.995 59.28 100.089 56.067 99.892 54.69zM23.019 44.198c-1.77-0.125-4.893-0.261-3.52-1.764 1.374-1.503 5.428-4.642 8.36-6.012 3.319-1.551 7.425-1.426 8.997-1.413l0.821 9.628L23.019 44.198zM69.015 45.267l-27.199-0.629-1.132-9.613c0 0 12.439 0.111 15.647 0.822 2.701 0.599 4.773 1.852 6.74 2.974 3.904 2.335 7.192 5.636 7.354 6.065C70.585 45.315 69.915 45.267 69.015 45.267z" fill="#000000" data-fill-palette-color="accent"></path></g></svg></g></svg></g><g></g></svg></g></svg></g></svg></g></svg></g><defs></defs></svg><rect width="320" height="360" fill="none" stroke="none" visibility="hidden"></rect></g></svg></g></svg>