<svg xmlns="http://www.w3.org/2000/svg" version="1.1" xmlns:xlink="http://www.w3.org/1999/xlink" xmlns:svgjs="http://svgjs.dev/svgjs" width="1000" height="492" viewBox="0 0 1000 492"><g transform="matrix(1,0,0,1,-0.6060389453285211,-0.5980579937121604)"><svg viewBox="0 0 396 195" data-background-color="#ffffff" preserveAspectRatio="xMidYMid meet" height="492" width="1000" xmlns="http://www.w3.org/2000/svg" xmlns:xlink="http://www.w3.org/1999/xlink"><g id="tight-bounds" transform="matrix(1,0,0,1,0.2399914223501014,0.2370351804347024)"><svg viewBox="0 0 395.52 194.5259296391306" height="194.5259296391306" width="395.52"><g><svg viewBox="0 0 395.52 194.5259296391306" height="194.5259296391306" width="395.52"><g transform="matrix(1,0,0,1,0,102.4167823523089)"><svg viewBox="0 0 395.52 92.10914728682171" height="92.10914728682171" width="395.52"><g id="textblocktransform"><svg viewBox="0 0 395.52 92.10914728682171" height="92.10914728682171" width="395.52" id="textblock"><g><svg viewBox="0 0 395.52 92.10914728682171" height="92.10914728682171" width="395.52"><g transform="matrix(1,0,0,1,0,0)"><svg width="395.52" viewBox="0 -35.29999923706055 154.7899932861328 36.04999923706055" height="92.10914728682171" data-palette-color="#77d4fc"><path d="M27.15-34.55L17.9-18.65 28.15 0 20.8 0 13.9-14.15 7.05 0 0 0 10-18.4 0.8-34.55 8.15-34.55 14-22.6 20.1-34.55 27.15-34.55ZM53.1-26.45L53.1 0 47.55 0 47.2-3.7Q45.75-1.45 43.77-0.35 41.8 0.75 39.1 0.75L39.1 0.75Q35.55 0.75 33.62-1.43 31.7-3.6 31.7-7.45L31.7-7.45 31.7-26.45 38.1-26.45 38.1-8.25Q38.1-6 38.87-5.05 39.65-4.1 41.35-4.1L41.35-4.1Q44.4-4.1 46.7-7.85L46.7-7.85 46.7-26.45 53.1-26.45ZM74.2-35.3Q77.35-35.3 79.7-34.4 82.05-33.5 84.3-31.65L84.3-31.65 80.95-27.75Q77.9-30.2 74.55-30.2L74.55-30.2Q70.7-30.2 68.37-27.1 66.05-24 66.05-17.35L66.05-17.35Q66.05-10.85 68.35-7.7 70.65-4.55 74.55-4.55L74.55-4.55Q76.6-4.55 78.2-5.28 79.8-6 81.6-7.35L81.6-7.35 84.7-3.45Q82.95-1.65 80.27-0.45 77.6 0.75 74.3 0.75L74.3 0.75Q69.8 0.75 66.35-1.35 62.9-3.45 61-7.53 59.1-11.6 59.1-17.35L59.1-17.35Q59.1-23 61.07-27.05 63.05-31.1 66.47-33.2 69.9-35.3 74.2-35.3L74.2-35.3ZM108.74-7Q108.74-5.45 109.22-4.73 109.69-4 110.74-3.6L110.74-3.6 109.39 0.65Q107.14 0.45 105.72-0.45 104.29-1.35 103.54-3.2L103.54-3.2Q102.19-1.2 100.17-0.23 98.14 0.75 95.64 0.75L95.64 0.75Q91.69 0.75 89.39-1.5 87.09-3.75 87.09-7.4L87.09-7.4Q87.09-11.7 90.22-13.98 93.34-16.25 99.14-16.25L99.14-16.25 102.44-16.25 102.44-17.75Q102.44-20.3 101.27-21.33 100.09-22.35 97.49-22.35L97.49-22.35Q94.59-22.35 90.49-20.95L90.49-20.95 88.99-25.3Q93.94-27.2 98.59-27.2L98.59-27.2Q108.74-27.2 108.74-18.1L108.74-18.1 108.74-7ZM97.34-3.9Q100.59-3.9 102.44-7.15L102.44-7.15 102.44-12.5 99.79-12.5Q93.59-12.5 93.59-7.9L93.59-7.9Q93.59-6 94.54-4.95 95.49-3.9 97.34-3.9L97.34-3.9ZM129.54-27.15Q130.99-27.15 132.19-26.8L132.19-26.8 131.09-20.6Q129.89-20.9 128.74-20.9L128.74-20.9Q126.39-20.9 125.04-19.23 123.69-17.55 122.89-14.1L122.89-14.1 122.89 0 116.49 0 116.49-26.45 122.04-26.45 122.64-21.25Q123.59-24.1 125.39-25.63 127.19-27.15 129.54-27.15L129.54-27.15ZM144.54-27.2Q149.89-27.2 153.94-24.05L153.94-24.05 151.44-20.3Q148.04-22.45 144.79-22.45L144.79-22.45Q142.89-22.45 141.84-21.73 140.79-21 140.79-19.8L140.79-19.8Q140.79-18.9 141.24-18.3 141.69-17.7 142.86-17.18 144.04-16.65 146.34-16L146.34-16Q150.64-14.85 152.71-12.95 154.79-11.05 154.79-7.65L154.79-7.65Q154.79-3.7 151.59-1.48 148.39 0.75 143.64 0.75L143.64 0.75Q140.39 0.75 137.71-0.25 135.04-1.25 133.09-3L133.09-3 136.29-6.6Q139.74-4 143.49-4L143.49-4Q145.64-4 146.91-4.85 148.19-5.7 148.19-7.2L148.19-7.2Q148.19-8.35 147.71-9.03 147.24-9.7 146.01-10.23 144.79-10.75 142.19-11.5L142.19-11.5Q138.14-12.6 136.24-14.58 134.34-16.55 134.34-19.5L134.34-19.5Q134.34-21.7 135.61-23.45 136.89-25.2 139.21-26.2 141.54-27.2 144.54-27.2L144.54-27.2Z" opacity="1" transform="matrix(1,0,0,1,0,0)" fill="#77d4fc" class="wordmark-text-0" data-fill-palette-color="primary" id="text-0"></path></svg></g></svg></g></svg></g></svg></g><g transform="matrix(1,0,0,1,75.54432,0)"><svg viewBox="0 0 244.43135999999998 80.67202329742518" height="80.67202329742518" width="244.43135999999998"><g><svg version="1.0" xmlns="http://www.w3.org/2000/svg" xmlns:xlink="http://www.w3.org/1999/xlink" x="8" y="0" viewBox="0 0 100.00099182128906 35.316001892089844" enable-background="new 0 0 100 35.316" xml:space="preserve" width="228.43135999999998" height="80.67202329742518" class="icon-icon-0" data-fill-palette-color="accent" id="icon-0"><circle cx="14.168" cy="28.868" r="6.4" fill="#4b91f1" data-fill-palette-color="accent"></circle><circle cx="79.074" cy="28.868" r="6.4" fill="#4b91f1" data-fill-palette-color="accent"></circle><path d="M98.567 0H39.82c-0.734 0-1.754 0.42-2.276 0.936L26.965 11.414c-0.463 0.458-1.398 0.931-2.042 1.031L1.392 16.119C0.625 16.239 0 16.968 0 17.745v9.69c0 0.79 0.643 1.434 1.434 1.434h4.43c0-4.587 3.718-8.305 8.305-8.305s8.304 3.718 8.304 8.305H70.77c0-4.587 3.719-8.305 8.305-8.305 4.587 0 8.305 3.718 8.305 8.305h11.188c0.79 0 1.433-0.644 1.433-1.434V1.433C100 0.643 99.357 0 98.567 0zM55.631 11.847c0 0.79-0.644 1.433-1.434 1.433H31.283c-0.553 0-0.731-0.231-0.788-0.369-0.057-0.138-0.093-0.427 0.3-0.817l8.137-8.075c0.521-0.517 1.541-0.938 2.274-0.938h12.991c0.79 0 1.434 0.643 1.434 1.433V11.847z" fill="#4b91f1" data-fill-palette-color="accent"></path></svg></g></svg></g><g><rect width="75.54432" height="8.306497958965583" y="71.3655253384596" x="319.97568" fill="#4b91f1" data-fill-palette-color="accent"></rect><rect width="75.54432" height="8.306497958965583" y="71.3655253384596" x="0" fill="#4b91f1" data-fill-palette-color="accent"></rect><rect width="75.54432" height="8.306497958965583" y="54.75252942052843" x="319.97568" fill="#4b91f1" data-fill-palette-color="accent"></rect><rect width="75.54432" height="8.306497958965583" y="54.75252942052843" x="0" fill="#4b91f1" data-fill-palette-color="accent"></rect></g></svg></g><defs></defs></svg><rect width="395.52" height="194.5259296391306" fill="none" stroke="none" visibility="hidden"></rect></g></svg></g></svg>